<?xml version="1.0" encoding="utf-8"?>
<!-- Generator: Adobe Illustrator 24.3.0, SVG Export Plug-In . SVG Version: 6.00 Build 0)  -->
<svg version="1.1" id="Lager_1" xmlns="http://www.w3.org/2000/svg" xmlns:xlink="http://www.w3.org/1999/xlink" x="0px" y="0px"
	 viewBox="0 0 56.89 61.21" style="enable-background:new 0 0 56.89 61.21;" xml:space="preserve">
<style type="text/css">
	.st0{fill:#FF9079;}
</style>
<path class="st0" d="M23.7,54.25c0-1.54-1.25-2.78-2.78-2.78c-0.17,0-0.34,0.02-0.5,0.05c-3.64,0.67-8.24,0.77-9.46-2.67
	c-1.06-2.66-2.83-4.98-5.1-6.72c-0.16-0.09-0.32-0.19-0.46-0.3c-0.41-1.08-1.44-1.79-2.59-1.8H2.78c-1.53,0-2.77,1.24-2.78,2.76
	c-0.01,2.27,2.26,3.72,3.17,4.21c1.09,1.09,1.96,2.38,2.57,3.79c1.01,2.85,3.96,7.17,12.42,6.61c0,0.1,0,0.19,0.01,0.27l0.01,0.74
	c0,1.54,1.25,2.78,2.78,2.78s2.78-1.25,2.78-2.78l-0.01-0.89C23.72,57.01,23.7,56.25,23.7,54.25z M53.37,12.18
	c0.09-0.35,0.17-0.73,0.25-1.17c0.45-3.1,0.06-6.26-1.13-9.16c-0.3-0.76-0.93-1.35-1.71-1.61c-0.99-0.34-4.65-0.99-11.64,3.48
	c-5.81-1.37-11.86-1.37-17.67,0c-6.96-4.4-10.6-3.81-11.58-3.49c-0.8,0.25-1.45,0.85-1.76,1.62C6.91,4.8,6.52,8.03,7.01,11.19
	c0.07,0.36,0.14,0.69,0.22,0.99c-2.3,3.07-3.53,6.81-3.49,10.65c-0.01,0.86,0.03,1.71,0.12,2.56c0.93,12.8,9.27,16.64,15.09,17.96
	c-0.12,0.35-0.23,0.72-0.33,1.11c-0.41,1.48,0.46,3.01,1.94,3.43c1.48,0.41,3.01-0.46,3.43-1.94c0.01-0.05,0.03-0.11,0.04-0.16
	c0.18-0.93,0.63-1.78,1.3-2.44c1.16-1.01,1.27-2.77,0.26-3.92c-0.46-0.52-1.09-0.85-1.78-0.93c-9.61-1.1-13.78-5.01-14.41-13.62
	c-0.07-0.68-0.1-1.37-0.09-2.05c-0.04-2.74,0.86-5.4,2.56-7.55c0.17-0.22,0.35-0.44,0.55-0.64c0.69-0.78,0.9-1.88,0.52-2.85
	c-0.19-0.5-0.33-1.02-0.43-1.55c-0.23-1.5-0.15-3.02,0.22-4.49c2.42,0.68,4.69,1.79,6.72,3.28c0.68,0.45,1.52,0.59,2.3,0.37
	c5.62-1.53,11.55-1.53,17.17,0c0.79,0.22,1.63,0.08,2.31-0.38c2.02-1.49,4.28-2.61,6.69-3.31c0.37,1.43,0.45,2.92,0.24,4.39
	c-0.1,0.58-0.26,1.14-0.47,1.69c-0.37,0.97-0.17,2.07,0.52,2.85c0.22,0.24,0.43,0.5,0.62,0.75c1.69,2.11,2.58,4.74,2.51,7.44
	c0.01,0.72-0.03,1.44-0.1,2.16c-0.61,8.5-4.8,12.42-14.45,13.52c-1.53,0.17-2.63,1.55-2.46,3.07c0.08,0.69,0.41,1.33,0.94,1.79
	c0.69,0.68,1.15,1.57,1.3,2.53c0.19,0.74,0.27,1.51,0.26,2.28v6.49c-0.03,1.8-0.03,3.15-0.03,3.77c0,1.54,1.25,2.78,2.78,2.78
	c1.54,0,2.78-1.25,2.78-2.78l0,0c0-0.6,0-1.93,0.03-3.73v-6.53c0.02-1.23-0.12-2.46-0.43-3.65c-0.09-0.39-0.2-0.78-0.32-1.16
	c8.74-1.45,15.14-9.01,15.14-17.87c0.09-0.89,0.13-1.78,0.13-2.67C56.95,18.98,55.71,15.23,53.37,12.18z"/>
</svg>
