<?xml version="1.0" encoding="utf-8"?>
<!-- Generator: Adobe Illustrator 24.3.0, SVG Export Plug-In . SVG Version: 6.00 Build 0)  -->
<svg version="1.1" id="Lager_1" xmlns="http://www.w3.org/2000/svg" xmlns:xlink="http://www.w3.org/1999/xlink" x="0px" y="0px"
	 viewBox="0 0 50.74 48.62" style="enable-background:new 0 0 50.74 48.62;" xml:space="preserve">
<style type="text/css">
	.st0{fill:#FF9079;}
</style>
<path class="st0" d="M10.53,5.28c-0.02,2.9-2.39,5.22-5.28,5.2c-2.9-0.02-5.22-2.39-5.2-5.28C0.07,2.32,2.41,0,5.28,0
	C8.19,0.01,10.54,2.38,10.53,5.28C10.53,5.28,10.53,5.28,10.53,5.28z M10.57,14.8H0v33.82h10.57V14.8z M27.44,14.8h-10.5v33.82h10.5
	V30.87c0-9.87,12.74-10.68,12.74,0v17.76h10.55V27.2c0-16.66-18.86-16.05-23.29-7.85V14.8z"/>
</svg>
